<?xml version="1.0" standalone="no"?>
<!DOCTYPE svg PUBLIC "-//W3C//DTD SVG 20010904//EN"
 "http://www.w3.org/TR/2001/REC-SVG-20010904/DTD/svg10.dtd">
<svg version="1.0" xmlns="http://www.w3.org/2000/svg"
 width="128.000000pt" height="128.000000pt" viewBox="0 0 128.000000 128.000000"
 preserveAspectRatio="xMidYMid meet">
<metadata>
Created by potrace 1.14, written by Peter Selinger 2001-2017
</metadata>
<g transform="translate(0.000000,128.000000) scale(0.100000,-0.100000)"
fill="#000000" stroke="none">
<path d="M519 1275 c-2 -2 -17 -6 -34 -8 -60 -11 -77 -17 -132 -42 -149 -68
-241 -206 -244 -365 -3 -150 48 -253 155 -307 42 -22 65 -27 126 -27 108 0
176 37 219 120 77 148 -52 314 -220 284 -47 -9 -55 5 -29 48 66 108 287 140
480 69 30 -11 57 -21 59 -23 1 -1 -9 -18 -24 -38 -38 -50 -31 -73 40 -117 33
-21 68 -38 77 -38 22 -1 177 196 178 226 1 58 -247 186 -410 212 -53 9 -234
13 -241 6z m316 -105 c95 -30 235 -103 235 -122 0 -15 -84 -118 -96 -118 -25
0 -25 20 1 54 38 50 31 73 -35 107 -91 48 -173 68 -291 73 -178 8 -319 -55
-369 -165 -44 -100 7 -173 107 -151 55 12 103 -2 136 -39 26 -28 29 -38 25
-81 -6 -57 -27 -84 -87 -110 -48 -22 -112 -18 -166 9 -144 75 -144 334 -1 467
39 36 139 82 197 91 24 4 46 9 48 11 2 2 54 2 115 0 76 -3 133 -11 181 -26z"/>
<path d="M836 748 c-25 -7 -58 -29 -87 -58 -39 -39 -48 -56 -56 -101 -11 -66
-3 -108 31 -159 37 -57 95 -83 168 -78 67 5 75 -8 36 -58 -36 -45 -59 -61
-118 -80 -121 -38 -295 -17 -408 49 -35 21 -36 16 15 80 17 21 20 33 13 46
-11 21 -112 101 -128 101 -13 0 -72 -63 -146 -154 -44 -56 -53 -73 -45 -88 19
-35 144 -129 224 -167 70 -35 106 -47 190 -68 54 -13 244 -12 304 2 129 31
246 115 295 213 21 42 27 61 43 127 2 11 4 52 4 91 0 125 -50 229 -134 278
-50 29 -142 40 -201 24z m170 -100 c57 -39 79 -98 79 -208 0 -116 -20 -175
-82 -241 -45 -48 -123 -90 -203 -108 -81 -18 -245 -7 -335 23 -77 26 -185 84
-234 126 -28 24 -23 39 40 109 30 33 43 41 51 33 9 -9 4 -21 -20 -51 -42 -52
-40 -72 5 -104 43 -30 159 -84 194 -91 13 -3 46 -9 73 -14 71 -14 192 -8 256
12 115 36 203 132 202 219 -1 32 -7 47 -27 65 -24 20 -33 21 -95 16 l-69 -7
-36 36 c-29 29 -35 42 -35 79 0 87 63 141 154 133 28 -3 63 -14 82 -27z"/>
</g>
</svg>
